<svg xmlns="http://www.w3.org/2000/svg" viewBox="0 0 320 200" role="img">

  <defs>
    <pattern id="tone" width="4" height="4" patternUnits="userSpaceOnUse">
      <circle cx="1" cy="1" r="0.7" fill="#111"/>
    </pattern>
    <pattern id="hatch" width="6" height="6" patternUnits="userSpaceOnUse" patternTransform="rotate(35)">
      <line x1="0" y1="0" x2="0" y2="6" stroke="#111" stroke-width="1"/>
    </pattern>
  </defs>
  <rect x="6" y="6" width="308" height="188" fill="#fff" stroke="#111" stroke-width="4"/>
  <rect x="10" y="10" width="300" height="180" fill="#f4f1ea" stroke="#111" stroke-width="1.5"/>
  <rect x="12" y="12" width="296" height="100" fill="#d7e6f0"/>
  <rect x="12" y="12" width="296" height="100" fill="url(#tone)" opacity="0.12"/>
  <rect x="12" y="112" width="296" height="76" fill="#efe6d4"/>
  <path d="M12 112 Q90 104 160 112 T308 112" fill="none" stroke="#111" stroke-width="2"/>
<g transform="translate(20,28)">
    <path d="M8 70 Q70 92 132 70 L120 58 L20 58 Z" fill="#fff" stroke="#111" stroke-width="2.4"/>
    <path d="M66 18 v40" stroke="#111" stroke-width="3"/>
    <path d="M66 20 L110 52 L66 52 Z" fill="#fff" stroke="#111" stroke-width="2"/>
    <path d="M66 28 L28 52 L66 52 Z" fill="#fff" stroke="#111" stroke-width="2"/>
  </g><g transform="translate(200,44)">
    <path d="M10 28 h26 l3 32 h-32z" fill="#fff" stroke="#111" stroke-width="2"/>
    <path d="M14 60 v16 M30 60 v16" stroke="#111" stroke-width="3"/>
    <circle cx="22" cy="16" r="13" fill="#fff" stroke="#111" stroke-width="2"/>
    <path d="M10 12 Q22 2 34 12" fill="#111"/>
    <rect x="10" y="12" width="24" height="6" fill="#111"/>
    <circle cx="18" cy="18" r="2.2" fill="#111"/>
    <circle cx="28" cy="18" r="2.2" fill="#111"/>
  </g>
<text x="230" y="34" font-size="13" font-family="Trebuchet MS, sans-serif" font-weight="700" fill="#111">ПОРОХ</text>

</svg>
