<svg xmlns="http://www.w3.org/2000/svg" viewBox="0 0 320 200" role="img">

  <defs>
    <pattern id="tone" width="4" height="4" patternUnits="userSpaceOnUse">
      <circle cx="1" cy="1" r="0.7" fill="#111"/>
    </pattern>
    <pattern id="hatch" width="6" height="6" patternUnits="userSpaceOnUse" patternTransform="rotate(35)">
      <line x1="0" y1="0" x2="0" y2="6" stroke="#111" stroke-width="1"/>
    </pattern>
  </defs>
  <rect x="6" y="6" width="308" height="188" fill="#fff" stroke="#111" stroke-width="4"/>
  <rect x="10" y="10" width="300" height="180" fill="#f4f1ea" stroke="#111" stroke-width="1.5"/>
  <rect x="12" y="12" width="296" height="100" fill="#d7e6f0"/>
  <rect x="12" y="12" width="296" height="100" fill="url(#tone)" opacity="0.12"/>
  <rect x="12" y="112" width="296" height="76" fill="#efe6d4"/>
  <path d="M12 112 Q90 104 160 112 T308 112" fill="none" stroke="#111" stroke-width="2"/>
<g transform="translate(10,28)">
    <path d="M8 70 Q70 92 132 70 L120 58 L20 58 Z" fill="#fff" stroke="#111" stroke-width="2.4"/>
    <path d="M66 18 v40" stroke="#111" stroke-width="3"/>
    <path d="M66 20 L110 52 L66 52 Z" fill="#fff" stroke="#111" stroke-width="2"/>
    <path d="M66 28 L28 52 L66 52 Z" fill="#fff" stroke="#111" stroke-width="2"/>
  </g><g transform="translate(200,50)">
    <path d="M10 28 h28 l4 34 h-36z" fill="#fff" stroke="#111" stroke-width="2"/>
    <path d="M12 62 v18 M32 62 v18" stroke="#111" stroke-width="3" stroke-linecap="round"/>
    <circle cx="24" cy="16" r="14" fill="#fff" stroke="#111" stroke-width="2.2"/>
    <path d="M10 16 Q11 6 24 5 Q37 6 38 16" fill="#111"/>
    <ellipse cx="19" cy="16" rx="3" ry="4" fill="#111"/>
    <ellipse cx="29" cy="16" rx="3" ry="4" fill="#111"/>
    <path d="M18 23 Q24 27 30 23" fill="none" stroke="#111" stroke-width="1.6"/>
  </g>
<text x="230" y="36" font-size="13" font-family="Trebuchet MS, sans-serif" font-weight="700" fill="#111">ПЛИ!</text>

</svg>
